<svg width="600" height="600" xmlns="http://www.w3.org/2000/svg" stroke="null">
 <title>logo</title>

 <g stroke="null">
  <title stroke="null">Layer 1</title>
  <g id="svg_1" stroke-width="0" stroke="null">
   <g id="svg_33" stroke="null">
    <path id="svg_2" d="m300,95.12573a200.35747,204.87426 0 1 0 200.35747,204.87426a200.35747,204.87426 0 0 0 -200.35747,-204.87426zm169.44518,177.21624s-0.71556,0 -1.00179,0a280.78669,287.11665 0 0 1 -53.9534,24.58491a275.77775,281.99479 0 0 0 -41.21639,-155.5581a171.73498,175.60651 0 0 1 96.17159,130.97319l-0.00001,0zm-255.31266,27.65803c0,-85.16916 31.48475,-158.48488 71.55624,-172.82608l0,187.45995a372.09245,380.48078 0 0 1 -71.55624,-9.36568c0,-2.04874 0,-3.65847 0,-5.2682l0,0.00001zm71.55624,43.90163l0,129.36346c-34.347,-12.43879 -62.54015,-68.04752 -69.69578,-137.70477a408.87236,418.08984 0 0 0 69.69578,8.34131zm28.6225,129.36346l0,-129.36346a408.87236,418.08984 0 0 0 69.69578,-8.34131c-7.15562,69.21823 -35.34878,125.41232 -69.69578,137.26576l0,0.43902l0,-0.00001zm0,-158.63122l0,-187.45995c40.07149,14.63388 71.55624,87.80326 71.55624,172.82608c0,1.60973 0,3.21945 0,4.82918a372.09245,380.48078 0 0 1 -71.55624,9.8047l0,-0.00001zm-87.58484,-173.26509a275.77775,281.99479 0 0 0 -41.21639,155.5581a280.78669,287.11665 0 0 1 -54.09652,-24.1459s0,0 -1.00179,0a171.73498,175.60651 0 0 1 96.3147,-131.41221l0,0.00001zm-98.46139,162.7287a318.56838,325.75008 0 0 0 58.24678,23.56054a262.75451,268.67796 0 0 0 40.07149,131.70488a171.73498,175.60651 0 0 1 -98.31827,-155.26543l0,0.00001zm245.00857,154.53373a262.75451,268.67796 0 0 0 40.07149,-130.97319a318.56838,325.75008 0 0 0 58.38989,-23.56054a171.73498,175.60651 0 0 1 -98.46139,154.53373l0.00001,0z" stroke="null" fill="#032d00"/>
   </g>
  </g>
  <path fill="#000000" stroke-width="0" d="m-62.49632,36.58263l0.60899,0.00045l-0.01976,0.05598l-0.56923,-0.00134l-0.02,-0.05509l0,0zm0.00419,-0.74467l0.60085,-0.00134l0.01744,0.05743l-0.63596,0.00045l0.01767,-0.05654zm-0.0593,0.37315l0.71898,-0.00134l-0.00093,0.05743l-0.71759,-0.00089l-0.00046,-0.0552zm0.71958,0.00533c0,0.38019 -0.1614,0.68947 -0.35981,0.68947c-0.19833,0 -0.35969,-0.30934 -0.35969,-0.68947c0,-0.38013 0.16139,-0.68942 0.35969,-0.68942c0.19841,-0.00006 0.35981,0.30929 0.35981,0.68942zm-0.35978,-0.74467c-0.21416,0 -0.38843,0.33403 -0.38843,0.74462c0,0.41064 0.17427,0.74467 0.38843,0.74467c0.21428,0 0.38852,-0.33403 0.38852,-0.74467c0,-0.41059 -0.17425,-0.74462 -0.38852,-0.74462zm0.10901,0.74467c0,0.40626 -0.05743,0.68947 -0.10901,0.68947c-0.05152,0 -0.10895,-0.28321 -0.10895,-0.68947c0,-0.40637 0.0574,-0.68942 0.10895,-0.68942c0.05155,-0.00006 0.10901,0.28304 0.10901,0.68942zm-0.10901,-0.74467c-0.08947,0 -0.13775,0.38368 -0.13775,0.74462c0,0.36105 0.04828,0.74467 0.13775,0.74467c0.08947,0 0.13783,-0.38368 0.13783,-0.74467c-0.00003,-0.36094 -0.04837,-0.74462 -0.13783,-0.74462zm0.25529,0.74467c0,0.38019 -0.11456,0.68947 -0.25529,0.68947c-0.1407,0 -0.2552,-0.30934 -0.2552,-0.68947c0,-0.38013 0.1145,-0.68942 0.2552,-0.68942c0.14073,-0.00006 0.25529,0.30929 0.25529,0.68942zm-0.25529,-0.74467c-0.15656,0 -0.284,0.33403 -0.284,0.74462c0,0.41064 0.12744,0.74467 0.284,0.74467c0.15662,0 0.28403,-0.33403 0.28403,-0.74467c0,-0.41059 -0.12741,-0.74462 -0.28403,-0.74462z" id="svg_32" stroke="#000"/>
  <path stroke="#000" fill="#032d00" stroke-width="0" d="m105.88272,400.14603c-0.00641,-3.95258 -2.87026,-7.1551 -6.40522,-7.16047l0,-0.00179l-19.63211,0c-0.80886,-2.90357 -3.22103,-5.02666 -6.09449,-5.03202l-4.60491,0c-3.53657,0.00358 -6.40202,3.20789 -6.40842,7.16047l0,25.3982c0.00641,3.949 2.87186,7.15152 6.40842,7.15869l30.33311,0c3.53176,-0.00716 6.39881,-3.20968 6.40522,-7.15869l0,-20.36439l-0.0016,0l0.00001,0zm-36.73673,-8.61584l4.60491,0c1.67539,-0.00716 3.07047,1.49296 3.17618,3.35826l0.0929,1.67734l22.45912,0c1.75066,0.00358 3.19861,1.62185 3.20181,3.58023l0,0.88611c-0.94661,-0.61759 -2.03096,-0.9971 -3.20341,-0.99889l-30.33311,0c-1.17245,0.00179 -2.2584,0.38308 -3.20341,1.00067l0,-5.9235c0.00481,-1.95839 1.45275,-3.57666 3.20501,-3.58023zm30.33151,32.55867l-30.33151,0c-1.75066,-0.00358 -3.19861,-1.62543 -3.20501,-3.58023l0,-13.3149l0.0016,0c0.0032,-1.96018 1.45114,-3.57844 3.20341,-3.58203l30.33311,0c1.75066,0.00358 3.18899,1.6129 3.20341,3.56413l0,13.33102c-0.00641,1.96018 -1.45435,3.57844 -3.20501,3.58203l0,-0.00001z" id="svg_39"/>
  <path stroke="#000" fill="#032d00" stroke-width="0" d="m78.69139,271.1528c-0.23525,-0.87739 -0.55314,-0.87316 0.46837,-3.26163l3.51807,-7.45788c0.04451,-0.10809 0.42387,-0.87316 0.40691,-2.00488c0.03179,-1.12112 -0.66334,-2.7318 -2.37151,-3.47992c-2.48384,-1.17622 -2.4796,-1.18046 -4.96768,-2.34608c-1.66154,-0.83925 -3.35064,-0.3624 -4.19413,0.37936c-0.89011,0.70574 -1.23768,1.48352 -1.29067,1.58949l-3.52442,7.45152c-1.1953,2.29734 -1.38815,2.05574 -2.22104,2.43086c-0.99396,0.27339 -2.63643,1.18258 -3.78298,3.84656c-2.3482,4.97191 -2.3482,4.97191 -2.3482,4.97191l-0.58493,1.24192l2.4796,1.17198l-7.62742,16.15555c-0.80534,1.7548 -0.35181,3.04334 -0.35181,4.30645c0.0212,1.32881 -0.16319,3.19805 -1.85652,6.80301l-0.58493,1.24192l7.45364,3.52019l0.58493,-1.2398c1.71241,-3.60072 3.03274,-4.92953 4.07332,-5.75818c0.97489,-0.80746 2.25919,-1.27159 3.1048,-3.00943l7.62742,-16.14496l2.48384,1.1741l0.59129,-1.24828c0,0 0,0 2.34184,-4.9698c1.32881,-2.58133 0.99184,-4.41454 0.57222,-5.36399l0,0.00001zm-16.10257,25.38306c-0.33061,0.74812 -0.87528,0.93038 -2.31218,2.02395c-1.22284,0.94946 -2.67882,2.48384 -4.25771,5.51023l-2.52411,-1.19105c1.33093,-3.13659 1.58949,-5.24319 1.5471,-6.78817c-0.0657,-1.80354 -0.27127,-2.33972 0.09537,-3.07089l7.62742,-16.15132l7.45364,3.5223l-7.62954,16.14496l-0.00001,-0.00001z" id="svg_42"/>
  <path fill="#032d00" stroke="#000" stroke-width="0" d="m104.59863,153.54164l0,-5.59739l-0.00198,0c-0.00198,-6.90884 -5.60134,-12.50821 -12.51018,-12.50821s-12.51018,5.60134 -12.51018,12.51018l0,0l0,5.59541l-4.52492,0l0,24.03084l34.07019,0l0,-24.03084l-4.52294,0l0.00001,0.00001zm-21.07019,-5.59541c0,0 0,0 0,0c0,-4.72045 3.83956,-8.56001 8.55804,-8.56001c4.72243,0 8.56199,3.83956 8.56199,8.55804c0,0 0,0 0,0l0,5.59739l-17.12003,0l0,-5.59541l0,-0.00001z" id="svg_43"/>
  <path fill="#032d00" stroke="#000" stroke-width="0" d="m201.73338,76.2887c-13.63337,0 -24.39047,13.9369 -24.39047,13.9369s10.7571,13.9387 24.39047,13.9387c10.42648,0 24.39047,-13.9387 24.39047,-13.9387s-13.964,-13.9369 -24.39047,-13.9369zm0,22.62171c-4.78595,0 -8.68482,-3.89706 -8.68482,-8.68482s3.89886,-8.68482 8.68482,-8.68482s8.68482,3.89886 8.68482,8.68482s-3.89886,8.68482 -8.68482,8.68482zm0,-13.75442c-2.79858,0 -5.0696,2.26922 -5.0696,5.0696c0,2.80039 2.26922,5.0696 5.0696,5.0696c2.80039,0 5.0696,-2.26922 5.0696,-5.0696c0,-2.79858 -2.26922,-5.0696 -5.0696,-5.0696z" id="svg_44"/>
  <path fill="#032d00" stroke="#000" stroke-width="0" d="m304.67556,71.24649c0.02881,-0.29568 0.04549,-0.59438 0.04549,-0.89612c0,-5.23422 -4.24257,-9.47678 -9.47678,-9.47678c-4.06213,0 -7.51774,2.56101 -8.86572,6.1546c-0.89309,-0.97952 -2.16677,-1.60575 -3.59663,-1.60575c-2.69595,0 -4.88092,2.18497 -4.88092,4.88092c0,0.31842 0.03487,0.62926 0.09401,0.92948c-3.59663,0.59287 -6.34869,3.69367 -6.34869,7.45709c0,4.18798 3.39496,7.58143 7.58143,7.58143l24.07103,0c4.18798,0 7.58143,-3.39345 7.58143,-7.58143c0.00152,-3.71641 -2.67624,-6.79447 -6.20464,-7.44344l-0.00001,0z" id="svg_46"/>
  <path fill="#032d00" stroke="#000" stroke-width="0" d="m382.28854,87.75859l0.01473,-0.00982l-0.94951,-1.49303c2.70775,-3.64417 3.07119,-8.70771 0.49113,-12.76934c-3.34458,-5.25999 -10.31861,-6.81195 -15.57859,-3.46737c-5.25835,3.34295 -6.81522,10.31697 -3.47064,15.58023c2.50148,3.9323 7.03951,5.7904 11.36799,5.07827l0.69413,1.09522l0.33724,0.07367l1.2753,-0.73178l-0.49931,2.25428l4.06491,0.90368l-0.48458,2.16915l3.11539,0.69413l-1.11322,5.00951l2.30176,0.51241l-0.69413,3.1203l6.76939,1.50285l1.24092,-5.55303l-8.88288,-13.96933l-0.00003,0zm-12.09813,-11.56607c-1.12141,0.71377 -2.60789,0.38144 -3.32167,-0.73997c-0.71214,-1.12141 -0.38308,-2.60953 0.73833,-3.32167s2.60953,-0.38144 3.32003,0.73997c0.71541,1.12141 0.38308,2.60953 -0.73669,3.32167z" id="svg_47"/>
  <path fill="#032d00" stroke="#000" stroke-width="0" d="m462.9221,118.77885c0.03243,-0.33288 0.05121,-0.66918 0.05121,-1.00889c0,-5.89289 -4.77645,-10.66934 -10.66934,-10.66934c-4.57331,0 -8.46377,2.88328 -9.98138,6.9291c-1.00548,-1.10278 -2.43944,-1.80781 -4.04923,-1.80781c-3.03521,0 -5.49514,2.45992 -5.49514,5.49514c0,0.35849 0.03926,0.70844 0.10584,1.04645c-4.04923,0.66747 -7.1476,4.15848 -7.1476,8.39549c0,4.71499 3.82218,8.53547 8.53547,8.53547l5.81095,0l-1.20692,-1.20692c-0.64357,-0.64357 -0.99865,-1.50054 -0.99865,-2.41212c0,-0.90988 0.35508,-1.76684 0.99865,-2.41042l0.94914,-0.95085c0.68284,-0.68113 1.59955,-1.07206 2.51114,-1.07206c0.04609,0 0.09218,0 0.13657,0.00341l0,-0.80575c0,-1.88463 1.53297,-3.4176 3.41419,-3.4176l5.57537,0c1.88293,0 3.41419,1.53297 3.41419,3.4176l0,0.80575c0.04609,-0.00341 0.09218,-0.00341 0.13827,-0.00341c0.90988,0 1.82659,0.39092 2.50943,1.07547l0.95085,0.94232c1.33153,1.33324 1.33153,3.49954 0,4.82766l-1.20521,1.20692l4.10215,0c4.71499,0 8.53547,-3.82048 8.53547,-8.53547c0.00171,-4.18409 -3.01302,-7.64949 -6.98543,-8.38013l0.00001,-0.00001zm-5.6539,12.08964l-0.94914,-0.94744c-0.66577,-0.66406 -1.64564,-0.76819 -2.17825,-0.23387c-0.53261,0.53261 -0.96963,0.20144 -0.96963,-0.73746l0,-2.11338c0,-0.9389 -0.7699,-1.70709 -1.70709,-1.70709l-5.57366,0c-0.9389,0 -1.70709,0.76819 -1.70709,1.70709l0,2.11338c0,0.9389 -0.43702,1.27008 -0.97134,0.73746c-0.53261,-0.53432 -1.51419,-0.43019 -2.17825,0.23387l-0.94914,0.94744c-0.66577,0.66406 -0.66577,1.74806 -0.00171,2.41212l7.3883,7.39343c0.33118,0.33118 0.7699,0.49676 1.20692,0.49676s0.87403,-0.16559 1.20692,-0.49676l7.3866,-7.39343c0.66406,-0.66235 0.66235,-1.74806 -0.00341,-2.41212l-0.00003,0z" id="svg_48"/>
  <path fill="#032d00" stroke="#000" stroke-width="0" d="m170.89085,483.82668c0.03538,-0.36313 0.05587,-0.72998 0.05587,-1.10055c0,-6.42828 -5.21041,-11.63869 -11.63869,-11.63869c-4.98881,0 -9.23274,3.14524 -10.88822,7.55863c-1.09683,-1.20297 -2.66107,-1.97206 -4.41711,-1.97206c-3.31097,0 -5.99439,2.68342 -5.99439,5.99439c0,0.39106 0.04283,0.77281 0.11546,1.14152c-4.41711,0.72812 -7.79699,4.53629 -7.79699,9.15825c0,5.14337 4.16944,9.31095 9.31095,9.31095l4.30538,0c-0.23464,-0.49534 -0.37244,-1.03538 -0.37244,-1.59962c0,-0.99627 0.38734,-1.93668 1.09311,-2.635l8.05397,-8.06142c0.69832,-0.70205 1.63314,-1.08938 2.63127,-1.08938c1.00558,0 1.9404,0.39106 2.63872,1.09311l8.05025,8.06142c0.70205,0.6946 1.08938,1.635 1.08938,2.63127c0,0.56611 -0.13594,1.10614 -0.37244,1.59962l2.44319,0c5.14337,0 9.31095,-4.16758 9.31095,-9.31095c0.00372,-4.56423 -3.2849,-8.34447 -7.61822,-9.14149zm-14.22527,7.47111c-0.3594,-0.36313 -0.83799,-0.5419 -1.31471,-0.5419s-0.95344,0.17877 -1.31657,0.5419l-8.05769,8.06328c-0.72625,0.72439 -0.72439,1.90874 0.00186,2.63314l1.03538,1.03352c0.72625,0.72439 1.79515,0.83612 2.37615,0.25512s1.05772,-0.2216 1.05772,0.80447l0,2.30539c0,1.02234 0.83985,1.86219 1.86219,1.86219l6.08005,0c1.02607,0 1.86219,-0.83985 1.86219,-1.86219l0,-2.30539c0,-1.02607 0.47672,-1.38547 1.05959,-0.80447c0.581,0.581 1.65176,0.46927 2.37615,-0.25512l1.03538,-1.03352c0.72625,-0.72439 0.72625,-1.90874 0.00186,-2.63314l-8.05956,-8.06328l0.00001,0z" id="svg_49"/>
  <path fill="#032d00" stroke="#000" stroke-width="0" d="m505.97256,159.65907c-1.61105,-8.82662 -9.31983,-15.51996 -18.60723,-15.51996l0,6.82646c6.68481,0.01024 12.09137,5.42021 12.10673,12.10673c-0.01536,6.68481 -5.42192,12.09137 -12.10673,12.10503l0,6.82988c9.2874,-0.00683 16.99619,-6.70017 18.60723,-15.52338l8.00403,0l0,-6.82476l-8.00403,0zm-7.99549,3.41323c0,-5.86223 -4.75122,-10.61344 -10.61344,-10.61344c-4.66418,0 -8.61841,3.01388 -10.04173,7.19851l-11.66301,0l0,6.82817l11.66301,0c1.42161,4.18462 5.37584,7.20021 10.04173,7.20021c5.86223,0 10.61344,-4.75292 10.61344,-10.61344l0,-0.00001z" id="svg_50"/>
  <path fill="#032d00" stroke="#000" stroke-width="0" d="m519.66877,222.25591l-1.44053,-5.04186c0.42216,-0.37032 0.8184,-0.76656 1.19242,-1.19057l5.03816,1.44053c0.5314,-0.77396 0.98875,-1.59607 1.39795,-2.44965l-3.74946,-3.6291c0.1796,-0.53326 0.33514,-1.07577 0.44623,-1.63495l5.05297,-1.26648c0.03703,-0.4666 0.07221,-0.93505 0.07221,-1.41276s-0.03703,-0.94431 -0.07221,-1.41091l-5.05297,-1.26648c-0.11295,-0.55918 -0.26848,-1.10169 -0.44623,-1.63495l3.75131,-3.6291c-0.41105,-0.85173 -0.86839,-1.67568 -1.3998,-2.44965l-5.03816,1.43868c-0.37217,-0.42216 -0.77026,-0.8184 -1.19242,-1.19057l1.44053,-5.04001c-0.77396,-0.52955 -1.59792,-0.98875 -2.4515,-1.39795l-3.6291,3.75131c-0.5314,-0.1796 -1.07577,-0.33329 -1.63495,-0.44623l-1.26463,-5.05482c-0.46845,-0.03518 -0.93505,-0.07221 -1.41276,-0.07221s-0.94431,0.03703 -1.41091,0.07221l-1.26648,5.05482c-0.55918,0.11295 -1.10169,0.26663 -1.63495,0.44623l-3.6291,-3.75131c-0.85173,0.41475 -1.67383,0.8721 -2.44779,1.4035l1.44053,5.04001c-0.42216,0.37032 -0.82025,0.76841 -1.19057,1.18872l-5.04001,-1.44053c-0.5314,0.77396 -0.98875,1.59792 -1.39795,2.4515l3.75131,3.6291c-0.17775,0.53326 -0.33329,1.07577 -0.44623,1.63495l-5.05482,1.26648c-0.03518,0.4666 -0.07221,0.93505 -0.07221,1.41091s0.03703,0.94431 0.07221,1.41276l5.05482,1.26648c0.11295,0.55918 0.26848,1.10169 0.44623,1.63495l-3.75131,3.6291c0.4092,0.85173 0.86654,1.67568 1.39795,2.44965l5.04001,-1.44053c0.37032,0.42401 0.76841,0.8184 1.19057,1.19057l-1.44053,5.04186c0.77396,0.52955 1.59792,0.98689 2.44965,1.39795l3.6291,-3.75131c0.53326,0.1796 1.07577,0.33514 1.63495,0.44623l1.26648,5.05297c0.4666,0.03703 0.93505,0.07221 1.41276,0.07221s0.94431,-0.03703 1.41276,-0.07221l1.26463,-5.05297c0.55918,-0.11295 1.10354,-0.26848 1.63495,-0.44623l3.6291,3.75131c0.84988,-0.41475 1.67383,-0.8721 2.44779,-1.40165zm-10.39109,-8.88945c-3.47542,0 -6.29353,-2.81811 -6.29353,-6.29353s2.81811,-6.29168 6.29353,-6.29168s6.29168,2.81626 6.29168,6.29168s-2.81626,6.29353 -6.29168,6.29353zm28.68474,13.1555c0.03518,-1.01282 -0.1111,-2.04415 -0.42586,-3.06252l2.30337,-3.28286c-0.3481,-0.64805 -0.74063,-1.26278 -1.18687,-1.82196l-3.92906,0.82395c-0.79248,-0.67398 -1.6942,-1.19983 -2.65887,-1.5757l-1.13132,-3.84944c-0.71471,-0.12591 -1.43868,-0.19442 -2.17191,-0.19627l-1.80344,3.58467c-0.51659,0.09999 -1.03318,0.237 -1.54052,0.43142c-0.47586,0.18146 -0.92024,0.40735 -1.3461,0.65361l-3.71428,-1.51645c-0.54992,0.48511 -1.0517,1.00911 -1.50534,1.57755l1.67939,3.64392c-0.47956,0.91653 -0.80914,1.90343 -0.96097,2.93476l-3.50134,1.96268c0.03518,0.71841 0.14072,1.43683 0.30366,2.1571l3.89573,0.96097c0.42772,0.97023 1.00171,1.83862 1.69605,2.57926l-0.65176,3.95869c0.59251,0.42586 1.22205,0.79248 1.87565,1.11095l3.17547,-2.44409c0.99245,0.26107 2.03119,0.36106 3.07733,0.27774l2.6885,2.9755c0.37032,-0.10554 0.73878,-0.21849 1.10354,-0.35736c0.32403,-0.1222 0.62954,-0.26663 0.93505,-0.4129l0.06851,-4.00868c0.84247,-0.62769 1.56089,-1.38313 2.13302,-2.23301l4.00127,-0.24811c0.28144,-0.66472 0.51659,-1.35536 0.68138,-2.06452l-3.09029,-2.55889l0.00001,-0.00001zm-7.70814,3.71613c-2.22375,0.84803 -4.71228,-0.26663 -5.56216,-2.49038s0.26478,-4.71413 2.48853,-5.56401c2.22375,-0.84803 4.71598,0.26663 5.56586,2.49038c0.84803,2.22375 -0.26848,4.71413 -2.49223,5.56401z" id="svg_51"/>
  <path fill="#032d00" stroke="#000" stroke-width="0" opacity="NaN" id="svg_52"/>
  <path fill="#032d00" stroke="#000" stroke-width="0" opacity="NaN" id="svg_53"/>
  <path fill="#032d00" stroke="#000" stroke-width="0" opacity="NaN" id="svg_54"/>
  <path fill="#032d00" stroke="#000" stroke-width="0" opacity="NaN" id="svg_55"/>
  <path fill="#032d00" stroke="#000" stroke-width="0" opacity="NaN" id="svg_56"/>
  <path fill="#032d00" stroke="#000" stroke-width="0" d="m259.57929,530.36781c4.85359,0 9.41704,1.90012 12.84514,5.34715c3.43599,3.4486 5.32507,8.04359 5.32507,12.93345l7.48222,0c0,-14.2044 -11.50954,-25.75809 -25.65402,-25.75809l0,7.47749l0.00158,0l0.00001,0zm0.00946,-13.25828c17.30294,0 31.37646,14.15236 31.37646,31.54676l7.47907,0c0,-21.5179 -17.43067,-39.02583 -38.85711,-39.02583l0,7.47907l0.00158,0zm10.34423,26.31946c0,2.86201 -2.31957,5.18316 -5.18,5.18316s-5.18,-2.32115 -5.18,-5.18316c0,-2.85886 2.31957,-5.18 5.18,-5.18s5.18,2.31957 5.18,5.18z" id="svg_57"/>
  <path fill="#032d00" stroke="#000" stroke-width="0" d="m49.68519,331.43365l8.86103,-8.86103l9.41293,9.41286l9.41293,-9.41286l8.86111,8.86103l-9.41294,9.41293l9.41294,9.41293l-8.86111,8.86111l-9.41293,-9.41294l-9.41293,9.41294l-8.86103,-8.86111l9.41286,-9.41293l-9.41286,-9.41293z" id="svg_58"/>
  <path fill="#032d00" stroke="#000" stroke-width="0" d="m88.65401,447.63141l49.55665,0l0,15.86029l-49.55665,0l0,-15.86029z" id="svg_59"/>
  <path fill="#032d00" stroke="#000" stroke-width="0" d="m390.1211,496.55517l0,0c4.01358,0 7.26723,3.25365 7.26723,7.26723c0,4.01358 -3.25365,7.26723 -7.26723,7.26723c-4.01359,0 -7.26723,-3.25365 -7.26723,-7.26723c0,-4.01358 3.25365,-7.26723 7.26723,-7.26723zm0,47.22467c-4.01359,0 -7.26723,-3.25365 -7.26723,-7.26724c0,-4.01358 3.25365,-7.26723 7.26723,-7.26723c4.01358,0 7.26723,3.25365 7.26723,7.26723c0,4.01359 -3.25365,7.26724 -7.26723,7.26724zm-21.37131,-30.87957l42.74263,0l0,14.53447l-42.74263,0l0,-14.53447z" id="svg_60"/>
  <path fill="#032d00" stroke="#000" stroke-width="0" d="m127.41021,114.83891l10.8504,0l0,-10.85041l11.13046,0l0,10.85041l10.85041,0l0,11.13046l-10.85041,0l0,10.8504l-11.13046,0l0,-10.8504l-10.8504,0l0,-11.13046z" id="svg_61"/>
  <path fill="#032d00" stroke="#000" stroke-width="0" d="m50.36513,211.65335l0,0c0,-12.14509 9.84561,-21.9907 21.99074,-21.9907l0,0c5.83239,0 11.42588,2.31688 15.54982,6.44095c4.1241,4.12407 6.44096,9.71753 6.44096,15.54975l0,0c0,12.14524 -9.84554,21.99078 -21.99078,21.99078l0,0c-12.14513,0 -21.99074,-9.84554 -21.99074,-21.99078l0,0zm35.51007,9.83754l0,0c4.84164,-6.65388 4.12194,-15.84136 -1.69679,-21.66001c-5.81873,-5.81869 -15.00621,-6.53839 -21.65992,-1.69671l23.35671,23.35671l0,0.00001zm-27.03853,-19.67489c-4.84167,6.65385 -4.12199,15.84133 1.6967,21.65989c5.81868,5.81873 15.00616,6.53842 21.65987,1.69679l-23.35658,-23.35668l0,0l0.00001,0z" id="svg_62"/>
  <path fill="#032d00" stroke="#000" stroke-width="0" opacity="NaN" d="m189.19072,506.74465l0,0l0,-0.00367l0,0.00367zm0.00183,-0.00367l10.58862,10.59229l-10.59045,10.58862l3.89344,3.89528l14.48389,-14.48573l-14.48389,-14.48573l-3.89161,3.89528l0,-0.00001zm18.76264,24.81197l26.45595,0l0,-5.50256l-26.45595,0l0,5.50256zm7.95385,-11.46749l18.5021,0l0,-5.50256l-18.5021,0l0,5.50256zm-7.95385,-16.97188l0,5.50623l26.45595,0l0,-5.50623l-26.45595,0z" id="svg_64"/>
  <path stroke="#000" id="svg_3" d="m358.42031,524.9211l-8.55496,2.64041c-0.78386,-2.32428 -1.96406,-4.33899 -3.39233,-5.94257l4.52409,-8.91058c0.3978,-0.78623 0.15266,-1.78867 -0.5578,-2.23583c-0.70313,-0.44389 -1.60002,-0.16707 -1.99635,0.61752l-4.29216,8.45522c-0.88662,-0.62734 -1.8202,-1.12856 -2.78902,-1.46762c-0.61065,-2.35377 -2.42498,-3.94915 -4.48886,-4.19649c-0.00147,-0.00655 -0.00294,-0.0131 -0.0044,-0.01966c-0.08954,-0.39639 -0.13652,-0.75347 -0.14385,-1.06468c-0.00734,-0.30958 0.01761,-0.57493 0.06752,-0.78459c0.05431,-0.21294 0.11596,-0.38492 0.18349,-0.51924c0.21431,-0.42587 0.49909,-0.70433 0.84698,-0.83373c0.03376,0.46027 0.20844,0.7895 0.5167,0.98442c0.22753,0.14414 0.49322,0.18837 0.80148,0.14087c0.30973,-0.05078 0.55193,-0.24897 0.72808,-0.59458c0.15413,-0.30466 0.18642,-0.63717 0.09395,-0.99425c-0.09395,-0.35872 -0.29799,-0.63553 -0.60771,-0.83045c-0.22606,-0.1425 -0.46092,-0.21457 -0.70753,-0.2113c-0.24514,0.00164 -0.48001,0.05569 -0.70606,0.15888c-0.22459,0.10319 -0.4345,0.26208 -0.62973,0.47337c-0.19376,0.2113 -0.35377,0.44389 -0.48441,0.69778c-0.19376,0.38329 -0.31707,0.81244 -0.36698,1.28253c-0.04844,0.46846 -0.05431,0.92546 -0.01321,1.3759c0.02495,0.26208 0.08954,0.49303 0.13798,0.73545c-0.55047,-0.0344 -1.11267,0.00328 -1.67341,0.1769c-0.70753,0.21785 -1.3402,0.58967 -1.87892,1.0696c-0.07633,-0.28173 -0.14385,-0.56346 -0.26422,-0.84847c-0.17028,-0.40786 -0.38606,-0.79606 -0.64294,-1.17279c-0.26129,-0.3751 -0.56368,-0.67157 -0.90717,-0.88942c-0.22606,-0.14087 -0.4712,-0.24733 -0.73542,-0.31777c-0.26422,-0.07043 -0.5167,-0.08517 -0.75744,-0.04423s-0.46679,0.13104 -0.67964,0.26863c-0.21431,0.13759 -0.38166,0.33578 -0.51083,0.58476c-0.17468,0.34561 -0.22019,0.70105 -0.13798,1.05977c0.08514,0.36199 0.26569,0.62898 0.53872,0.80261c0.30826,0.19492 0.60918,0.22604 0.89689,0.09173c0.28771,-0.13431 0.49468,-0.32596 0.62386,-0.58148c0.17468,-0.34397 0.17321,-0.72562 -0.01028,-1.13839c0.35817,-0.09009 0.72955,-0.0131 1.11121,0.23095c0.1189,0.07371 0.25101,0.18837 0.39633,0.3407c0.14239,0.15069 0.28331,0.36363 0.41982,0.63553c0.13798,0.2719 0.26276,0.60277 0.36844,0.99589c0.01908,0.07207 0.03376,0.16052 0.05138,0.23914c-1.33726,1.35624 -1.99195,3.42009 -1.61176,5.49868c-0.85432,0.95658 -1.5736,2.08023 -2.13874,3.33328l-7.5744,-4.79271c-0.7046,-0.44389 -1.60295,-0.16707 -2.00223,0.61752c-0.3978,0.7895 -0.14973,1.79194 0.55487,2.23911l7.98688,5.04824c-0.48588,2.19488 -0.56808,4.59779 -0.17175,7.03837l-8.55496,2.64205c-0.78386,0.24078 -1.24185,1.14494 -1.0246,2.01635c0.21578,0.86813 1.02313,1.38081 1.80699,1.13675l8.62983,-2.66498c0.73836,1.73134 2.00076,3.73458 3.48041,5.63954l-4.6885,9.23653c-0.39927,0.78787 -0.15266,1.78867 0.55487,2.23256c0.35083,0.2244 0.75157,0.26535 1.11267,0.15397c0.36404,-0.11138 0.68845,-0.3751 0.88662,-0.77149l4.24959,-8.36841c3.96335,4.2489 8.34358,6.75337 8.48157,1.72479c2.34572,4.19321 5.06575,-0.55364 6.60852,-6.51258l7.63752,4.82711c0.3523,0.22604 0.7545,0.26535 1.11855,0.15397c0.36111,-0.10974 0.68551,-0.3751 0.88515,-0.77149c0.39927,-0.78459 0.15266,-1.78703 -0.5534,-2.23092l-8.36854,-5.28902c0.42716,-2.46515 0.61946,-4.88608 0.46826,-6.77794l8.6401,-2.66498c0.77799,-0.24078 1.24332,-1.14167 1.02166,-2.01307c-0.21725,-0.8714 -1.02753,-1.38245 -1.80846,-1.14167z" stroke-width="0" fill="#032d00"/>
  <path stroke="#000" id="svg_5" d="m463.95075,478.24345c-3.64526,-3.57168 -7.57688,-6.43282 -10.80201,-6.82288c-0.17557,-0.0253 -0.35742,-0.04006 -0.54972,-0.04428l-21.22571,0c-0.33861,0 -0.67304,0.13283 -0.91132,0.37952c-0.23619,0.24036 -0.37623,0.57771 -0.37623,0.92138l0,54.29208c0,0.34157 0.13168,0.66837 0.37623,0.91717c0.24455,0.24458 0.56644,0.37741 0.91132,0.37741l38.38394,0c0.33861,0 0.66258,-0.13072 0.90714,-0.37741c0.24455,-0.24669 0.38041,-0.57349 0.38041,-0.91717l0,-36.12795c-0.07525,-4.19367 -3.33174,-8.76685 -7.09405,-12.59787zm4.51477,47.4207l-35.80885,0l0,-51.69449l19.94443,0l0,0.00422c0.86951,-0.05271 1.61988,0.81385 2.19468,2.79578c0.52254,1.88704 0.65422,4.34758 0.65213,6.0533c0.00418,1.2503 -0.05643,2.08945 -0.05643,2.08945l-0.10242,1.3747l1.37115,0.01476c0.00627,0 3.1687,0.03795 6.27052,0.74849c2.98059,0.6494 5.31113,1.94397 5.52851,3.40933c0.00836,0.13072 0.01045,0.26145 0.00836,0.38373l0,34.82072l-0.00209,0z" stroke-width="0" fill="#032d00"/>
  <path id="svg_6" d="m532.77915,252.22383c-14.09958,0 -25.52925,11.42967 -25.52925,25.52925c0,14.09958 11.42967,25.52925 25.52925,25.52925c14.09958,0 25.52925,-11.42967 25.52925,-25.52925c0,-14.09958 -11.42967,-25.52925 -25.52925,-25.52925zm14.73017,23.71652c-2.54871,2.93163 -6.50966,3.90123 -9.98581,2.78584l-12.62586,14.51939c-1.34549,1.54574 -3.68693,1.70382 -5.23267,0.36009s-1.70909,-3.68693 -0.36536,-5.23267l12.64343,-14.5352c-1.56857,-3.27591 -1.15403,-7.31415 1.38238,-10.22997c2.40116,-2.76652 6.06526,-3.77827 9.39387,-2.94041l-4.83745,5.64194l1.58262,4.60384l4.78125,0.9292l4.84975,-5.65599c1.31388,3.18633 0.83083,6.97689 -1.58614,9.75395z" stroke-width="0" stroke="#000" fill="#032d00"/>
  <path id="svg_8" d="m529.49869,327.87563c-3.43488,3.43692 -4.77293,8.12826 -4.13042,12.59115l6.36799,-6.36799c0.00816,-0.0102 0.02856,-0.01632 0.03264,-0.02448c0.42834,-0.822 0.94643,-1.60933 1.63585,-2.29672c3.61845,-3.62253 9.48671,-3.62049 13.11128,0c3.62049,3.61641 3.62457,9.48875 0.00408,13.11332c-0.6935,0.6935 -1.48287,1.20955 -2.30692,1.63993c-0.00816,0.00408 -0.01224,0.01224 -0.0204,0.0204l-6.37003,6.37003c4.46289,0.64455 9.1624,-0.6935 12.59727,-4.12634c5.77647,-5.77647 5.77239,-15.1408 0,-20.91726c-5.78055,-5.77647 -15.14488,-5.77647 -20.92135,-0.00204zm-2.26408,35.62564c-0.4263,0.82608 -0.94235,1.61341 -1.63381,2.30692c-3.62049,3.61845 -9.49691,3.61845 -13.1174,0c-3.62049,-3.61845 -3.62049,-9.49079 0,-13.11536c0.69146,-0.68942 1.47879,-1.20547 2.3008,-1.63177c0.00816,-0.01224 0.0102,-0.02448 0.02244,-0.03264l6.36595,-6.37003c-4.46085,-0.64455 -9.15628,0.69758 -12.58911,4.12838c-5.77443,5.77443 -5.77239,15.1408 0,20.91726c5.77851,5.77443 15.14284,5.77443 20.92135,0c3.43488,-3.43488 4.77701,-8.1303 4.12634,-12.59523l-6.37411,6.37003c-0.00612,0.01428 -0.01428,0.01836 -0.02244,0.02244zm-10.43518,-6.49037l4.48125,4.48125c1.09533,1.09533 2.89027,1.09533 3.98356,0l16.93371,-16.9337c1.09941,-1.09329 1.09941,-2.89027 0.00408,-3.98152l-4.48533,-4.48125c-1.09329,-1.09941 -2.88823,-1.09941 -3.98152,-0.00408l-16.93371,16.93574c-1.09737,1.09533 -1.09737,2.89027 -0.00204,3.98356z" stroke-width="0" stroke="#000" fill="#032d00"/>
  <path id="svg_10" opacity="NaN" stroke-width="0" stroke="#000" fill="#032d00"/>
  <path id="svg_11" d="m516.81279,394.62308c-1.60104,-0.77553 -3.52938,-0.10964 -4.30974,1.49462c-0.77714,1.60426 -0.10641,3.5326 1.49462,4.30974c5.02239,2.44428 8.48889,7.58598 8.48566,13.54513c-0.01612,8.30992 -6.73951,15.03331 -15.04782,15.04782c-8.30992,-0.01612 -15.03331,-6.73951 -15.04943,-15.04782c-0.00322,-5.96237 3.46488,-11.10891 8.49211,-13.54836c1.60426,-0.77714 2.27015,-2.70548 1.49462,-4.30974c-0.77714,-1.60104 -2.70226,-2.27176 -4.30652,-1.49462c-7.17807,3.47456 -12.1279,10.83965 -12.13113,19.35272c0.00322,11.87315 9.62396,21.4955 21.50034,21.49873c11.87477,-0.00322 21.49712,-9.62557 21.49873,-21.49873c-0.00322,-8.50984 -4.94661,-15.8701 -12.12145,-19.3495zm-9.37728,15.85559c1.78001,0 3.22304,-1.44142 3.22304,-3.22465l0,-15.04943c0,-1.78162 -1.44303,-3.22304 -3.22304,-3.22304c-1.78323,0 -3.22465,1.44303 -3.22465,3.22304l0,15.04782c0,1.78323 1.44142,3.22626 3.22465,3.22626z" stroke-width="0" stroke="#000" fill="#032d00"/>
  <path id="svg_12" d="m501.23938,472.62147l-10.31947,-10.31947c1.39022,-2.29241 2.20552,-4.97437 2.20697,-7.85039c-0.00145,-8.3891 -6.79469,-15.18379 -15.17945,-15.18669c-8.3862,0.0029 -15.18234,6.79759 -15.18234,15.18524c0,8.38331 6.79614,15.178 15.18234,15.178c2.87746,0 5.55942,-0.81531 7.85184,-2.20552l10.32237,10.32092l5.11774,-5.12209zm-32.68316,-18.17131c0.00869,-5.18725 4.20396,-9.38108 9.38977,-9.39266c5.18291,0.01159 9.38108,4.20541 9.38977,9.39266c-0.01014,5.18436 -4.20686,9.37818 -9.38977,9.38977c-5.1858,-0.01159 -9.38108,-4.20541 -9.38977,-9.38977z" stroke-width="0" stroke="#000" fill="#032d00"/>
 </g>
</svg>